<?xml version="1.0" encoding="UTF-8"?>
<svg width="32px" height="32px" viewBox="0 0 32 32" version="1.1" xmlns="http://www.w3.org/2000/svg" xmlns:xlink="http://www.w3.org/1999/xlink">
    <g stroke="none" stroke-width="1" fill="none" fill-rule="evenodd">
        <g transform="translate(-273.000000, -486.000000)">
            <g transform="translate(55.000000, 381.000000)">
                <g transform="translate(218.000000, 105.000000)">
                    <circle fill-opacity="0.55" fill="#000000" cx="16" cy="16" r="14"></circle>
                    <g transform="translate(8.125000, 8.125000)" fill="#FFFFFF" id="编组-2">
                        <path d="M11.375,0.4375 L12.195,2.6245 L15.3125,2.625 C15.5541246,2.625 15.75,2.82087542 15.75,3.0625 L15.75,13.5625 C15.75,13.8041246 15.5541246,14 15.3125,14 L0.4375,14 C0.195875422,14 2.95904766e-17,13.8041246 0,13.5625 L0,3.0625 C-2.95904766e-17,2.82087542 0.195875422,2.625 0.4375,2.625 L3.555,2.6245 L4.375,0.4375 L11.375,0.4375 Z M7.875,4.8125 C5.94200338,4.8125 4.375,6.37950338 4.375,8.3125 C4.375,10.2454966 5.94200338,11.8125 7.875,11.8125 C9.80799662,11.8125 11.375,10.2454966 11.375,8.3125 C11.375,6.37950338 9.80799662,4.8125 7.875,4.8125 Z M7.875,6.125 C9.08312289,6.125 10.0625,7.10437711 10.0625,8.3125 C10.0625,9.52062289 9.08312289,10.5 7.875,10.5 C6.66687711,10.5 5.6875,9.52062289 5.6875,8.3125 C5.6875,7.10437711 6.66687711,6.125 7.875,6.125 Z M13.78125,3.9375 C13.4188131,3.9375 13.125,4.23131313 13.125,4.59375 C13.125,4.95618687 13.4188131,5.25 13.78125,5.25 C14.1436869,5.25 14.4375,4.95618687 14.4375,4.59375 C14.4375,4.23131313 14.1436869,3.9375 13.78125,3.9375 Z" id="形状结合"></path>
                    </g>
                </g>
            </g>
        </g>
    </g>
</svg>